<?xml version="1.0" standalone="no"?>
<svg xmlns="http://www.w3.org/2000/svg" xmlns:xlink="http://www.w3.org/1999/xlink" width="2700pt" height="360pt" viewBox="0.00 0.00 2700.09 360.00">
<g id="graph0" class="graph" transform="translate(4,356) scale(1)" data-name="pipeline">

<polygon fill="white" stroke="none" points="-4,4 -4,-356 2696.09,-356 2696.09,4 -4,4" style=""/>
<text text-anchor="middle" x="1346.04" y="-339" font-family="sans" font-size="10.00" style="">&lt;GstPipeline&gt;</text>
<text text-anchor="middle" x="1346.04" y="-327" font-family="sans" font-size="10.00" style="">pipeline0</text>
<text text-anchor="middle" x="1346.04" y="-315" font-family="sans" font-size="10.00" style="">[=] -&gt; [&gt;]</text>
<g id="clust1" class="cluster" data-name="cluster_rtmpsink_0x10300c290">

<path fill="#aaaaff" stroke="black" d="M2392.09,-110C2392.09,-110 2680.09,-110 2680.09,-110 2686.09,-110 2692.09,-116 2692.09,-122 2692.09,-122 2692.09,-198 2692.09,-198 2692.09,-204 2686.09,-210 2680.09,-210 2680.09,-210 2392.09,-210 2392.09,-210 2386.09,-210 2380.09,-204 2380.09,-198 2380.09,-198 2380.09,-122 2380.09,-122 2380.09,-116 2386.09,-110 2392.09,-110" style=""/>
<text text-anchor="middle" x="2536.09" y="-198.8" font-family="Bitstream Vera Sans" font-size="8.00" style="">GstRTMPSink</text>
<text text-anchor="middle" x="2536.09" y="-189.2" font-family="Bitstream Vera Sans" font-size="8.00" style="">rtmpsink</text>
<text text-anchor="middle" x="2536.09" y="-179.6" font-family="Bitstream Vera Sans" font-size="8.00" style="">[-] -&gt; [&gt;]</text>
<text text-anchor="middle" x="2536.09" y="-170" font-family="Bitstream Vera Sans" font-size="8.00" style="">location="rtmp://live.twitch.tv/app/$STREAM_KEY"</text>
</g>
<g id="clust2" class="cluster" data-name="cluster_rtmpsink_0x10300c290_sink">

</g>
<g id="clust3" class="cluster" data-name="cluster_flv_queue_0x11d98cce0">

<path fill="#aaffaa" stroke="black" d="M2090.59,-110C2090.59,-110 2239.59,-110 2239.59,-110 2245.59,-110 2251.59,-116 2251.59,-122 2251.59,-122 2251.59,-189 2251.59,-189 2251.59,-195 2245.59,-201 2239.59,-201 2239.59,-201 2090.59,-201 2090.59,-201 2084.59,-201 2078.59,-195 2078.59,-189 2078.59,-189 2078.59,-122 2078.59,-122 2078.59,-116 2084.59,-110 2090.59,-110" style=""/>
<text text-anchor="middle" x="2165.09" y="-189.8" font-family="Bitstream Vera Sans" font-size="8.00" style="">GstQueue</text>
<text text-anchor="middle" x="2165.09" y="-180.2" font-family="Bitstream Vera Sans" font-size="8.00" style="">flv_queue</text>
<text text-anchor="middle" x="2165.09" y="-170.6" font-family="Bitstream Vera Sans" font-size="8.00" style="">[&gt;]</text>
</g>
<g id="clust4" class="cluster" data-name="cluster_flv_queue_0x11d98cce0_sink">

</g>
<g id="clust5" class="cluster" data-name="cluster_flv_queue_0x11d98cce0_src">

</g>
<g id="clust6" class="cluster" data-name="cluster_flvmux_0x10480e1a0">

<path fill="#aaffaa" stroke="black" d="M1788.09,-81C1788.09,-81 1938.09,-81 1938.09,-81 1944.09,-81 1950.09,-87 1950.09,-93 1950.09,-93 1950.09,-208 1950.09,-208 1950.09,-214 1944.09,-220 1938.09,-220 1938.09,-220 1788.09,-220 1788.09,-220 1782.09,-220 1776.09,-214 1776.09,-208 1776.09,-208 1776.09,-93 1776.09,-93 1776.09,-87 1782.09,-81 1788.09,-81" style=""/>
<text text-anchor="middle" x="1863.09" y="-208.8" font-family="Bitstream Vera Sans" font-size="8.00" style="">GstFlvMux</text>
<text text-anchor="middle" x="1863.09" y="-199.2" font-family="Bitstream Vera Sans" font-size="8.00" style="">flvmux</text>
<text text-anchor="middle" x="1863.09" y="-189.6" font-family="Bitstream Vera Sans" font-size="8.00" style="">[&gt;]</text>
<text text-anchor="middle" x="1863.09" y="-180" font-family="Bitstream Vera Sans" font-size="8.00" style="">metadatacreator="GStreamer 1.22.4 FLV muxer"</text>
<text text-anchor="middle" x="1863.09" y="-170.4" font-family="Bitstream Vera Sans" font-size="8.00" style="">encoder="GStreamer 1.22.4 FLV muxer"</text>
</g>
<g id="clust7" class="cluster" data-name="cluster_flvmux_0x10480e1a0_sink">

</g>
<g id="clust8" class="cluster" data-name="cluster_flvmux_0x10480e1a0_src">

</g>
<g id="clust9" class="cluster" data-name="cluster_aacparse0_0x10400c280">

<path fill="#aaffaa" stroke="black" d="M1486.59,-81C1486.59,-81 1635.59,-81 1635.59,-81 1641.59,-81 1647.59,-87 1647.59,-93 1647.59,-93 1647.59,-160 1647.59,-160 1647.59,-166 1641.59,-172 1635.59,-172 1635.59,-172 1486.59,-172 1486.59,-172 1480.59,-172 1474.59,-166 1474.59,-160 1474.59,-160 1474.59,-93 1474.59,-93 1474.59,-87 1480.59,-81 1486.59,-81" style=""/>
<text text-anchor="middle" x="1561.09" y="-160.8" font-family="Bitstream Vera Sans" font-size="8.00" style="">GstAacParse</text>
<text text-anchor="middle" x="1561.09" y="-151.2" font-family="Bitstream Vera Sans" font-size="8.00" style="">aacparse0</text>
<text text-anchor="middle" x="1561.09" y="-141.6" font-family="Bitstream Vera Sans" font-size="8.00" style="">[&gt;]</text>
</g>
<g id="clust10" class="cluster" data-name="cluster_aacparse0_0x10400c280_sink">

</g>
<g id="clust11" class="cluster" data-name="cluster_aacparse0_0x10400c280_src">

</g>
<g id="clust12" class="cluster" data-name="cluster_audio_queue_0x11d98c9e0">

<path fill="#aaffaa" stroke="black" d="M1183.63,-81C1183.63,-81 1332.63,-81 1332.63,-81 1338.63,-81 1344.63,-87 1344.63,-93 1344.63,-93 1344.63,-160 1344.63,-160 1344.63,-166 1338.63,-172 1332.63,-172 1332.63,-172 1183.63,-172 1183.63,-172 1177.63,-172 1171.63,-166 1171.63,-160 1171.63,-160 1171.63,-93 1171.63,-93 1171.63,-87 1177.63,-81 1183.63,-81" style=""/>
<text text-anchor="middle" x="1258.13" y="-160.8" font-family="Bitstream Vera Sans" font-size="8.00" style="">GstQueue</text>
<text text-anchor="middle" x="1258.13" y="-151.2" font-family="Bitstream Vera Sans" font-size="8.00" style="">audio-queue</text>
<text text-anchor="middle" x="1258.13" y="-141.6" font-family="Bitstream Vera Sans" font-size="8.00" style="">[&gt;]</text>
</g>
<g id="clust13" class="cluster" data-name="cluster_audio_queue_0x11d98c9e0_sink">

</g>
<g id="clust14" class="cluster" data-name="cluster_audio_queue_0x11d98c9e0_src">

</g>
<g id="clust15" class="cluster" data-name="cluster_h264parse0_0x103808470">

<path fill="#aaffaa" stroke="black" d="M1486.59,-180C1486.59,-180 1635.59,-180 1635.59,-180 1641.59,-180 1647.59,-186 1647.59,-192 1647.59,-192 1647.59,-259 1647.59,-259 1647.59,-265 1641.59,-271 1635.59,-271 1635.59,-271 1486.59,-271 1486.59,-271 1480.59,-271 1474.59,-265 1474.59,-259 1474.59,-259 1474.59,-192 1474.59,-192 1474.59,-186 1480.59,-180 1486.59,-180" style=""/>
<text text-anchor="middle" x="1561.09" y="-259.8" font-family="Bitstream Vera Sans" font-size="8.00" style="">GstH264Parse</text>
<text text-anchor="middle" x="1561.09" y="-250.2" font-family="Bitstream Vera Sans" font-size="8.00" style="">h264parse0</text>
<text text-anchor="middle" x="1561.09" y="-240.6" font-family="Bitstream Vera Sans" font-size="8.00" style="">[&gt;]</text>
</g>
<g id="clust16" class="cluster" data-name="cluster_h264parse0_0x103808470_sink">

</g>
<g id="clust17" class="cluster" data-name="cluster_h264parse0_0x103808470_src">

</g>
<g id="clust18" class="cluster" data-name="cluster_video_queue_0x11d98c6e0">

<path fill="#aaffaa" stroke="black" d="M1183.63,-180C1183.63,-180 1332.63,-180 1332.63,-180 1338.63,-180 1344.63,-186 1344.63,-192 1344.63,-192 1344.63,-259 1344.63,-259 1344.63,-265 1338.63,-271 1332.63,-271 1332.63,-271 1183.63,-271 1183.63,-271 1177.63,-271 1171.63,-265 1171.63,-259 1171.63,-259 1171.63,-192 1171.63,-192 1171.63,-186 1177.63,-180 1183.63,-180" style=""/>
<text text-anchor="middle" x="1258.13" y="-259.8" font-family="Bitstream Vera Sans" font-size="8.00" style="">GstQueue</text>
<text text-anchor="middle" x="1258.13" y="-250.2" font-family="Bitstream Vera Sans" font-size="8.00" style="">video-queue</text>
<text text-anchor="middle" x="1258.13" y="-240.6" font-family="Bitstream Vera Sans" font-size="8.00" style="">[&gt;]</text>
</g>
<g id="clust19" class="cluster" data-name="cluster_video_queue_0x11d98c6e0_sink">

</g>
<g id="clust20" class="cluster" data-name="cluster_video_queue_0x11d98c6e0_src">

</g>
<g id="clust21" class="cluster" data-name="cluster_demux_0x11d98c3e0">

<path fill="#aaffaa" stroke="black" d="M880.67,-123C880.67,-123 1029.67,-123 1029.67,-123 1035.67,-123 1041.67,-129 1041.67,-135 1041.67,-135 1041.67,-240 1041.67,-240 1041.67,-246 1035.67,-252 1029.67,-252 1029.67,-252 880.67,-252 880.67,-252 874.67,-252 868.67,-246 868.67,-240 868.67,-240 868.67,-135 868.67,-135 868.67,-129 874.67,-123 880.67,-123" style=""/>
<text text-anchor="middle" x="955.17" y="-240.8" font-family="Bitstream Vera Sans" font-size="8.00" style="">GstTSDemux</text>
<text text-anchor="middle" x="955.17" y="-231.2" font-family="Bitstream Vera Sans" font-size="8.00" style="">demux</text>
<text text-anchor="middle" x="955.17" y="-221.6" font-family="Bitstream Vera Sans" font-size="8.00" style="">[&gt;]</text>
<text text-anchor="middle" x="955.17" y="-212" font-family="Bitstream Vera Sans" font-size="8.00" style="">parse-private-sections=TRUE</text>
</g>
<g id="clust22" class="cluster" data-name="cluster_demux_0x11d98c3e0_sink">

</g>
<g id="clust23" class="cluster" data-name="cluster_demux_0x11d98c3e0_src">

</g>
<g id="clust24" class="cluster" data-name="cluster_typefind_0x11d982010">

<path fill="#aaffaa" stroke="black" d="M538.94,-152C538.94,-152 754.94,-152 754.94,-152 760.94,-152 766.94,-158 766.94,-164 766.94,-164 766.94,-240 766.94,-240 766.94,-246 760.94,-252 754.94,-252 754.94,-252 538.94,-252 538.94,-252 532.94,-252 526.94,-246 526.94,-240 526.94,-240 526.94,-164 526.94,-164 526.94,-158 532.94,-152 538.94,-152" style=""/>
<text text-anchor="middle" x="646.94" y="-240.8" font-family="Bitstream Vera Sans" font-size="8.00" style="">GstTypeFindElement</text>
<text text-anchor="middle" x="646.94" y="-231.2" font-family="Bitstream Vera Sans" font-size="8.00" style="">typefind</text>
<text text-anchor="middle" x="646.94" y="-221.6" font-family="Bitstream Vera Sans" font-size="8.00" style="">[&gt;]</text>
<text text-anchor="middle" x="646.94" y="-212" font-family="Bitstream Vera Sans" font-size="8.00" style="">caps=video/mpegts, systemstream=(boolean)true, packetsize=(int)188</text>
</g>
<g id="clust25" class="cluster" data-name="cluster_typefind_0x11d982010_sink">

</g>
<g id="clust26" class="cluster" data-name="cluster_typefind_0x11d982010_src">

</g>
<g id="clust27" class="cluster" data-name="cluster_demux_queue_0x11d98c0e0">

<path fill="#aaffaa" stroke="black" d="M330.44,-152C330.44,-152 479.44,-152 479.44,-152 485.44,-152 491.44,-158 491.44,-164 491.44,-164 491.44,-260 491.44,-260 491.44,-266 485.44,-272 479.44,-272 479.44,-272 330.44,-272 330.44,-272 324.44,-272 318.44,-266 318.44,-260 318.44,-260 318.44,-164 318.44,-164 318.44,-158 324.44,-152 330.44,-152" style=""/>
<text text-anchor="middle" x="404.94" y="-260.8" font-family="Bitstream Vera Sans" font-size="8.00" style="">GstQueue</text>
<text text-anchor="middle" x="404.94" y="-251.2" font-family="Bitstream Vera Sans" font-size="8.00" style="">demux_queue</text>
<text text-anchor="middle" x="404.94" y="-241.6" font-family="Bitstream Vera Sans" font-size="8.00" style="">[&gt;]</text>
<text text-anchor="middle" x="404.94" y="-232" font-family="Bitstream Vera Sans" font-size="8.00" style="">current-level-buffers=200</text>
<text text-anchor="middle" x="404.94" y="-222.4" font-family="Bitstream Vera Sans" font-size="8.00" style="">current-level-bytes=37600</text>
<text text-anchor="middle" x="404.94" y="-212.8" font-family="Bitstream Vera Sans" font-size="8.00" style="">current-level-time=1157625</text>
</g>
<g id="clust28" class="cluster" data-name="cluster_demux_queue_0x11d98c0e0_sink">

</g>
<g id="clust29" class="cluster" data-name="cluster_demux_queue_0x11d98c0e0_src">

</g>
<g id="clust30" class="cluster" data-name="cluster_srtsrc0_0x11d9842b0">

<path fill="#ffaaaa" stroke="black" d="M79.47,-152C79.47,-152 203.47,-152 203.47,-152 209.47,-152 215.47,-158 215.47,-164 215.47,-164 215.47,-288 215.47,-288 215.47,-294 209.47,-300 203.47,-300 203.47,-300 79.47,-300 79.47,-300 73.47,-300 67.47,-294 67.47,-288 67.47,-288 67.47,-164 67.47,-164 67.47,-158 73.47,-152 79.47,-152" style=""/>
<text text-anchor="middle" x="141.47" y="-288.8" font-family="Bitstream Vera Sans" font-size="8.00" style="">GstSRTSrc</text>
<text text-anchor="middle" x="141.47" y="-279.2" font-family="Bitstream Vera Sans" font-size="8.00" style="">srtsrc0</text>
<text text-anchor="middle" x="141.47" y="-269.6" font-family="Bitstream Vera Sans" font-size="8.00" style="">[&gt;]</text>
<text text-anchor="middle" x="141.47" y="-260" font-family="Bitstream Vera Sans" font-size="8.00" style="">uri="srt://127.0.0.1:1234?mode=listener"</text>
<text text-anchor="middle" x="141.47" y="-250.4" font-family="Bitstream Vera Sans" font-size="8.00" style="">mode=listener</text>
<text text-anchor="middle" x="141.47" y="-240.8" font-family="Bitstream Vera Sans" font-size="8.00" style="">localaddress="127.0.0.1"</text>
<text text-anchor="middle" x="141.47" y="-231.2" font-family="Bitstream Vera Sans" font-size="8.00" style="">localport=1234</text>
<text text-anchor="middle" x="141.47" y="-221.6" font-family="Bitstream Vera Sans" font-size="8.00" style="">streamid=NULL</text>
<text text-anchor="middle" x="141.47" y="-212" font-family="Bitstream Vera Sans" font-size="8.00" style="">authentication=TRUE</text>
</g>
<g id="clust31" class="cluster" data-name="cluster_srtsrc0_0x11d9842b0_src">

</g>
<!-- legend -->
<g id="node1" class="node" pointer-events="visible" data-name="legend">

<polygon fill="lightgrey" stroke="black" points="282.91,-144 0.03,-144 0.03,-82 282.91,-82 282.91,-144" style=""/>
<text text-anchor="start" x="4" y="-131.9" font-family="sans" font-size="9.00" style="">Legend</text>
<text text-anchor="start" x="4" y="-121.1" font-family="sans" font-size="9.00" style="">Element-States: [~] void-pending, [0] null, [-] ready, [=] paused, [&gt;] playing</text>
<text text-anchor="start" x="4" y="-110.3" font-family="sans" font-size="9.00" style="">Pad-Activation: [-] none, [&gt;] push, [&lt;] pull</text>
<text text-anchor="start" x="4" y="-99.5" font-family="sans" font-size="9.00" style="">Pad-Flags: [b]locked, [f]lushing, [b]locking, [E]OS; upper-case is set</text>
<text text-anchor="start" x="4" y="-88.7" font-family="sans" font-size="9.00" style="">Pad-Task: [T] has started task, [t] has paused task</text>
</g>
<!-- rtmpsink_0x10300c290_sink_0x10380c730 -->
<g id="node2" class="node" pointer-events="visible" data-name="rtmpsink_0x10300c290_sink_0x10380c730">

<polygon fill="#aaaaff" stroke="black" points="2563.09,-147.6 2509.09,-147.6 2509.09,-126.4 2563.09,-126.4 2563.09,-147.6" style=""/>
<text text-anchor="middle" x="2536.09" y="-139.7" font-family="sans" font-size="9.00" style="">sink</text>
<text text-anchor="middle" x="2536.09" y="-128.9" font-family="sans" font-size="9.00" style="">[&gt;][bfb]</text>
</g>
<!-- flv_queue_0x11d98cce0_sink_0x10380c290 -->
<g id="node3" class="node" pointer-events="visible" data-name="flv_queue_0x11d98cce0_sink_0x10380c290">

<polygon fill="#aaaaff" stroke="black" points="2148.59,-147.6 2094.59,-147.6 2094.59,-126.4 2148.59,-126.4 2148.59,-147.6" style=""/>
<text text-anchor="middle" x="2121.59" y="-139.7" font-family="sans" font-size="9.00" style="">sink</text>
<text text-anchor="middle" x="2121.59" y="-128.9" font-family="sans" font-size="9.00" style="">[&gt;][bfb]</text>
</g>
<!-- flv_queue_0x11d98cce0_src_0x10380c4e0 -->
<g id="node4" class="node" pointer-events="visible" data-name="flv_queue_0x11d98cce0_src_0x10380c4e0">

<polygon fill="#ffaaaa" stroke="black" points="2235.59,-147.6 2181.59,-147.6 2181.59,-126.4 2235.59,-126.4 2235.59,-147.6" style=""/>
<text text-anchor="middle" x="2208.59" y="-139.7" font-family="sans" font-size="9.00" style="">src</text>
<text text-anchor="middle" x="2208.59" y="-128.9" font-family="sans" font-size="9.00" style="">[&gt;][bfb][T]</text>
</g>
<!-- flv_queue_0x11d98cce0_sink_0x10380c290&#45;&gt;flv_queue_0x11d98cce0_src_0x10380c4e0 -->
<!-- flv_queue_0x11d98cce0_src_0x10380c4e0&#45;&gt;rtmpsink_0x10300c290_sink_0x10380c730 -->
<g id="edge2" class="edge" data-name="flv_queue_0x11d98cce0_src_0x10380c4e0-&gt;rtmpsink_0x10300c290_sink_0x10380c730">

<path fill="none" stroke="black" d="M2235.95,-137C2293.63,-137 2431.19,-137 2497.75,-137" style=""/>
<polygon fill="black" stroke="black" points="2497.42,-140.5 2507.42,-137 2497.42,-133.5 2497.42,-140.5" style=""/>
<text text-anchor="middle" x="2315.84" y="-139.7" font-family="monospace" font-size="9.00" style="">                                                  </text>
<text text-anchor="start" x="2395.6" y="-135.2" font-family="monospace" font-size="6.00" style="">video/x-flv</text>
<text text-anchor="middle" x="2335.95" y="-135.2" font-family="monospace" font-size="6.00" style="">ANY</text>
</g>
<!-- flvmux_0x10480e1a0_sink_0_0x1030143b0 -->
<g id="node5" class="node" pointer-events="visible" data-name="flvmux_0x10480e1a0_sink_0_0x1030143b0">

<polygon fill="#aaaaff" stroke="black" stroke-dasharray="5,2" points="1846.09,-147.6 1792.09,-147.6 1792.09,-126.4 1846.09,-126.4 1846.09,-147.6" style=""/>
<text text-anchor="middle" x="1819.09" y="-139.7" font-family="sans" font-size="9.00" style="">sink_0</text>
<text text-anchor="middle" x="1819.09" y="-128.9" font-family="sans" font-size="9.00" style="">[&gt;][bfb]</text>
</g>
<!-- flvmux_0x10480e1a0_src_0x104814360 -->
<g id="node7" class="node" pointer-events="visible" data-name="flvmux_0x10480e1a0_src_0x104814360">

<polygon fill="#ffaaaa" stroke="black" points="1933.09,-147.6 1879.09,-147.6 1879.09,-126.4 1933.09,-126.4 1933.09,-147.6" style=""/>
<text text-anchor="middle" x="1906.09" y="-139.7" font-family="sans" font-size="9.00" style="">src</text>
<text text-anchor="middle" x="1906.09" y="-128.9" font-family="sans" font-size="9.00" style="">[&gt;][bfb][T]</text>
</g>
<!-- flvmux_0x10480e1a0_sink_0_0x1030143b0&#45;&gt;flvmux_0x10480e1a0_src_0x104814360 -->
<!-- flvmux_0x10480e1a0_sink_1_0x103014800 -->
<g id="node6" class="node" pointer-events="visible" data-name="flvmux_0x10480e1a0_sink_1_0x103014800">

<polygon fill="#aaaaff" stroke="black" stroke-dasharray="5,2" points="1846.09,-118.6 1792.09,-118.6 1792.09,-97.4 1846.09,-97.4 1846.09,-118.6" style=""/>
<text text-anchor="middle" x="1819.09" y="-110.7" font-family="sans" font-size="9.00" style="">sink_1</text>
<text text-anchor="middle" x="1819.09" y="-99.9" font-family="sans" font-size="9.00" style="">[&gt;][bfb]</text>
</g>
<!-- flvmux_0x10480e1a0_src_0x104814360&#45;&gt;flv_queue_0x11d98cce0_sink_0x10380c290 -->
<g id="edge4" class="edge" data-name="flvmux_0x10480e1a0_src_0x104814360-&gt;flv_queue_0x11d98cce0_sink_0x10380c290">

<path fill="none" stroke="black" d="M1933.27,-137C1970.72,-137 2039.81,-137 2082.81,-137" style=""/>
<polygon fill="black" stroke="black" points="2082.68,-140.5 2092.68,-137 2082.68,-133.5 2082.68,-140.5" style=""/>
<text text-anchor="middle" x="2014.34" y="-139.7" font-family="monospace" font-size="9.00" style="">                                                  </text>
<text text-anchor="middle" x="1994.19" y="-135.2" font-family="monospace" font-size="6.00" style="">ANY</text>
<text text-anchor="start" x="2019.94" y="-135.2" font-family="monospace" font-size="6.00" style="">video/x-flv</text>
</g>
<!-- aacparse0_0x10400c280_sink_0x11d989cd0 -->
<g id="node8" class="node" pointer-events="visible" data-name="aacparse0_0x10400c280_sink_0x11d989cd0">

<polygon fill="#aaaaff" stroke="black" points="1544.59,-118.6 1490.59,-118.6 1490.59,-97.4 1544.59,-97.4 1544.59,-118.6" style=""/>
<text text-anchor="middle" x="1517.59" y="-110.7" font-family="sans" font-size="9.00" style="">sink</text>
<text text-anchor="middle" x="1517.59" y="-99.9" font-family="sans" font-size="9.00" style="">[&gt;][bfb]</text>
</g>
<!-- aacparse0_0x10400c280_src_0x10380c040 -->
<g id="node9" class="node" pointer-events="visible" data-name="aacparse0_0x10400c280_src_0x10380c040">

<polygon fill="#ffaaaa" stroke="black" points="1631.59,-118.6 1577.59,-118.6 1577.59,-97.4 1631.59,-97.4 1631.59,-118.6" style=""/>
<text text-anchor="middle" x="1604.59" y="-110.7" font-family="sans" font-size="9.00" style="">src</text>
<text text-anchor="middle" x="1604.59" y="-99.9" font-family="sans" font-size="9.00" style="">[&gt;][bfb]</text>
</g>
<!-- aacparse0_0x10400c280_sink_0x11d989cd0&#45;&gt;aacparse0_0x10400c280_src_0x10380c040 -->
<!-- aacparse0_0x10400c280_src_0x10380c040&#45;&gt;flvmux_0x10480e1a0_sink_1_0x103014800 -->
<g id="edge6" class="edge" data-name="aacparse0_0x10400c280_src_0x10380c040-&gt;flvmux_0x10480e1a0_sink_1_0x103014800">

<path fill="none" stroke="black" d="M1632.07,-108C1669.39,-108 1737.66,-108 1780.3,-108" style=""/>
<polygon fill="black" stroke="black" points="1780.09,-111.5 1790.09,-108 1780.09,-104.5 1780.09,-111.5" style=""/>
<text text-anchor="middle" x="1711.84" y="-110.7" font-family="monospace" font-size="9.00" style="">                                                  </text>
<text text-anchor="start" x="1644.56" y="-210.6" font-family="monospace" font-size="6.00" style="">audio/x-adpcm</text>
<text text-anchor="start" x="1644.56" y="-203.4" font-family="monospace" font-size="6.00" style="">              layout: swf</text>
<text text-anchor="start" x="1644.56" y="-196.2" font-family="monospace" font-size="6.00" style="">            channels: { (int)1, (int)2 }</text>
<text text-anchor="start" x="1644.56" y="-189" font-family="monospace" font-size="6.00" style="">                rate: { (int)5512, (int)11... }</text>
<text text-anchor="start" x="1644.56" y="-181.8" font-family="monospace" font-size="6.00" style="">audio/mpeg</text>
<text text-anchor="start" x="1644.56" y="-174.6" font-family="monospace" font-size="6.00" style="">         mpegversion: 1</text>
<text text-anchor="start" x="1644.56" y="-167.4" font-family="monospace" font-size="6.00" style="">               layer: 3</text>
<text text-anchor="start" x="1644.56" y="-160.2" font-family="monospace" font-size="6.00" style="">            channels: { (int)1, (int)2 }</text>
<text text-anchor="start" x="1644.56" y="-153" font-family="monospace" font-size="6.00" style="">                rate: { (int)5512, (int)80... }</text>
<text text-anchor="start" x="1644.56" y="-145.8" font-family="monospace" font-size="6.00" style="">              parsed: true</text>
<text text-anchor="start" x="1644.56" y="-138.6" font-family="monospace" font-size="6.00" style="">audio/mpeg</text>
<text text-anchor="start" x="1644.56" y="-131.4" font-family="monospace" font-size="6.00" style="">         mpegversion: { (int)4, (int)2 }</text>
<text text-anchor="start" x="1644.56" y="-124.2" font-family="monospace" font-size="6.00" style="">       stream-format: raw</text>
<text text-anchor="start" x="1644.56" y="-117" font-family="monospace" font-size="6.00" style="">audio/x-nellymoser</text>
<text text-anchor="start" x="1644.56" y="-109.8" font-family="monospace" font-size="6.00" style="">            channels: { (int)1, (int)2 }</text>
<text text-anchor="start" x="1644.56" y="-102.6" font-family="monospace" font-size="6.00" style="">                rate: { (int)5512, (int)80... }</text>
<text text-anchor="start" x="1644.56" y="-95.4" font-family="monospace" font-size="6.00" style="">audio/x-raw</text>
<text text-anchor="start" x="1644.56" y="-88.2" font-family="monospace" font-size="6.00" style="">              format: { (string)U8, (strin... }</text>
<text text-anchor="start" x="1644.56" y="-81" font-family="monospace" font-size="6.00" style="">              layout: interleaved</text>
<text text-anchor="start" x="1644.56" y="-73.8" font-family="monospace" font-size="6.00" style="">            channels: { (int)1, (int)2 }</text>
<text text-anchor="start" x="1644.56" y="-66.6" font-family="monospace" font-size="6.00" style="">                rate: { (int)5512, (int)11... }</text>
<text text-anchor="start" x="1644.56" y="-59.4" font-family="monospace" font-size="6.00" style="">audio/x-alaw</text>
<text text-anchor="start" x="1644.56" y="-52.2" font-family="monospace" font-size="6.00" style="">            channels: { (int)1, (int)2 }</text>
<text text-anchor="start" x="1644.56" y="-45" font-family="monospace" font-size="6.00" style="">                rate: 8000</text>
<text text-anchor="start" x="1644.56" y="-37.8" font-family="monospace" font-size="6.00" style="">audio/x-mulaw</text>
<text text-anchor="start" x="1644.56" y="-30.6" font-family="monospace" font-size="6.00" style="">            channels: { (int)1, (int)2 }</text>
<text text-anchor="start" x="1644.56" y="-23.4" font-family="monospace" font-size="6.00" style="">                rate: 8000</text>
<text text-anchor="start" x="1644.56" y="-16.2" font-family="monospace" font-size="6.00" style="">audio/x-speex</text>
<text text-anchor="start" x="1644.56" y="-9" font-family="monospace" font-size="6.00" style="">            channels: 1</text>
<text text-anchor="start" x="1644.56" y="-1.8" font-family="monospace" font-size="6.00" style="">                rate: 16000</text>
<text text-anchor="start" x="1681.95" y="-117" font-family="monospace" font-size="6.00" style="">audio/mpeg</text>
<text text-anchor="start" x="1681.95" y="-109.8" font-family="monospace" font-size="6.00" style="">              framed: true</text>
<text text-anchor="start" x="1681.95" y="-102.6" font-family="monospace" font-size="6.00" style="">         mpegversion: { (int)2, (int)4 }</text>
<text text-anchor="start" x="1681.95" y="-95.4" font-family="monospace" font-size="6.00" style="">       stream-format: { (string)raw, (stri... }</text>
</g>
<!-- audio_queue_0x11d98c9e0_sink_0x11d989830 -->
<g id="node10" class="node" pointer-events="visible" data-name="audio_queue_0x11d98c9e0_sink_0x11d989830">

<polygon fill="#aaaaff" stroke="black" points="1241.63,-118.6 1187.63,-118.6 1187.63,-97.4 1241.63,-97.4 1241.63,-118.6" style=""/>
<text text-anchor="middle" x="1214.63" y="-110.7" font-family="sans" font-size="9.00" style="">sink</text>
<text text-anchor="middle" x="1214.63" y="-99.9" font-family="sans" font-size="9.00" style="">[&gt;][bfb]</text>
</g>
<!-- audio_queue_0x11d98c9e0_src_0x11d989a80 -->
<g id="node11" class="node" pointer-events="visible" data-name="audio_queue_0x11d98c9e0_src_0x11d989a80">

<polygon fill="#ffaaaa" stroke="black" points="1328.63,-118.6 1274.63,-118.6 1274.63,-97.4 1328.63,-97.4 1328.63,-118.6" style=""/>
<text text-anchor="middle" x="1301.63" y="-110.7" font-family="sans" font-size="9.00" style="">src</text>
<text text-anchor="middle" x="1301.63" y="-99.9" font-family="sans" font-size="9.00" style="">[&gt;][bfb][T]</text>
</g>
<!-- audio_queue_0x11d98c9e0_sink_0x11d989830&#45;&gt;audio_queue_0x11d98c9e0_src_0x11d989a80 -->
<!-- audio_queue_0x11d98c9e0_src_0x11d989a80&#45;&gt;aacparse0_0x10400c280_sink_0x11d989cd0 -->
<g id="edge8" class="edge" data-name="audio_queue_0x11d98c9e0_src_0x11d989a80-&gt;aacparse0_0x10400c280_sink_0x11d989cd0">

<path fill="none" stroke="black" d="M1328.86,-108C1366.4,-108 1435.64,-108 1478.73,-108" style=""/>
<polygon fill="black" stroke="black" points="1478.62,-111.5 1488.62,-108 1478.62,-104.5 1478.62,-111.5" style=""/>
<text text-anchor="start" x="1366.62" y="-132.3" font-family="monospace" font-size="9.00" style="">audio/mpeg</text>
<text text-anchor="start" x="1366.62" y="-121.5" font-family="monospace" font-size="9.00" style="">         mpegversion: 4</text>
<text text-anchor="start" x="1366.62" y="-110.7" font-family="monospace" font-size="9.00" style="">       stream-format: adts</text>
</g>
<!-- h264parse0_0x103808470_sink_0x11d989390 -->
<g id="node12" class="node" pointer-events="visible" data-name="h264parse0_0x103808470_sink_0x11d989390">

<polygon fill="#aaaaff" stroke="black" points="1544.59,-217.6 1490.59,-217.6 1490.59,-196.4 1544.59,-196.4 1544.59,-217.6" style=""/>
<text text-anchor="middle" x="1517.59" y="-209.7" font-family="sans" font-size="9.00" style="">sink</text>
<text text-anchor="middle" x="1517.59" y="-198.9" font-family="sans" font-size="9.00" style="">[&gt;][bfb]</text>
</g>
<!-- h264parse0_0x103808470_src_0x11d9895e0 -->
<g id="node13" class="node" pointer-events="visible" data-name="h264parse0_0x103808470_src_0x11d9895e0">

<polygon fill="#ffaaaa" stroke="black" points="1631.59,-217.6 1577.59,-217.6 1577.59,-196.4 1631.59,-196.4 1631.59,-217.6" style=""/>
<text text-anchor="middle" x="1604.59" y="-209.7" font-family="sans" font-size="9.00" style="">src</text>
<text text-anchor="middle" x="1604.59" y="-198.9" font-family="sans" font-size="9.00" style="">[&gt;][bfb]</text>
</g>
<!-- h264parse0_0x103808470_sink_0x11d989390&#45;&gt;h264parse0_0x103808470_src_0x11d9895e0 -->
<!-- h264parse0_0x103808470_src_0x11d9895e0&#45;&gt;flvmux_0x10480e1a0_sink_0_0x1030143b0 -->
<g id="edge10" class="edge" data-name="h264parse0_0x103808470_src_0x11d9895e0-&gt;flvmux_0x10480e1a0_sink_0_0x1030143b0">

<path fill="none" stroke="black" d="M1632.07,-198.28C1669.55,-185.93 1738.25,-163.3 1780.85,-149.27" style=""/>
<polygon fill="black" stroke="black" points="1781.76,-152.65 1790.17,-146.2 1779.57,-146 1781.76,-152.65" style=""/>
<text text-anchor="middle" x="1711.84" y="-192.7" font-family="monospace" font-size="9.00" style="">                                                  </text>
<text text-anchor="start" x="1668.64" y="-193.21" font-family="monospace" font-size="6.00" style="">video/x-flash-video</text>
<text text-anchor="start" x="1668.64" y="-186.01" font-family="monospace" font-size="6.00" style="">video/x-flash-screen</text>
<text text-anchor="start" x="1668.64" y="-178.81" font-family="monospace" font-size="6.00" style="">video/x-vp6-flash</text>
<text text-anchor="start" x="1668.64" y="-171.61" font-family="monospace" font-size="6.00" style="">video/x-vp6-alpha</text>
<text text-anchor="start" x="1668.64" y="-164.41" font-family="monospace" font-size="6.00" style="">video/x-h264</text>
<text text-anchor="start" x="1668.64" y="-157.21" font-family="monospace" font-size="6.00" style="">       stream-format: avc</text>
<text text-anchor="start" x="1677.27" y="-175.99" font-family="monospace" font-size="6.00" style="">video/x-h264</text>
<text text-anchor="start" x="1677.27" y="-168.79" font-family="monospace" font-size="6.00" style="">              parsed: true</text>
<text text-anchor="start" x="1677.27" y="-161.59" font-family="monospace" font-size="6.00" style="">       stream-format: { (string)avc, (stri... }</text>
<text text-anchor="start" x="1677.27" y="-154.39" font-family="monospace" font-size="6.00" style="">           alignment: { (string)au, (strin... }</text>
</g>
<!-- video_queue_0x11d98c6e0_sink_0x11d988ef0 -->
<g id="node14" class="node" pointer-events="visible" data-name="video_queue_0x11d98c6e0_sink_0x11d988ef0">

<polygon fill="#aaaaff" stroke="black" points="1241.63,-217.6 1187.63,-217.6 1187.63,-196.4 1241.63,-196.4 1241.63,-217.6" style=""/>
<text text-anchor="middle" x="1214.63" y="-209.7" font-family="sans" font-size="9.00" style="">sink</text>
<text text-anchor="middle" x="1214.63" y="-198.9" font-family="sans" font-size="9.00" style="">[&gt;][bfb]</text>
</g>
<!-- video_queue_0x11d98c6e0_src_0x11d989140 -->
<g id="node15" class="node" pointer-events="visible" data-name="video_queue_0x11d98c6e0_src_0x11d989140">

<polygon fill="#ffaaaa" stroke="black" points="1328.63,-217.6 1274.63,-217.6 1274.63,-196.4 1328.63,-196.4 1328.63,-217.6" style=""/>
<text text-anchor="middle" x="1301.63" y="-209.7" font-family="sans" font-size="9.00" style="">src</text>
<text text-anchor="middle" x="1301.63" y="-198.9" font-family="sans" font-size="9.00" style="">[&gt;][bfb][T]</text>
</g>
<!-- video_queue_0x11d98c6e0_sink_0x11d988ef0&#45;&gt;video_queue_0x11d98c6e0_src_0x11d989140 -->
<!-- video_queue_0x11d98c6e0_src_0x11d989140&#45;&gt;h264parse0_0x103808470_sink_0x11d989390 -->
<g id="edge12" class="edge" data-name="video_queue_0x11d98c6e0_src_0x11d989140-&gt;h264parse0_0x103808470_sink_0x11d989390">

<path fill="none" stroke="black" d="M1328.86,-207C1366.4,-207 1435.64,-207 1478.73,-207" style=""/>
<polygon fill="black" stroke="black" points="1478.62,-210.5 1488.62,-207 1478.62,-203.5 1478.62,-210.5" style=""/>
<text text-anchor="start" x="1352.63" y="-220.5" font-family="monospace" font-size="9.00" style="">video/x-h264</text>
<text text-anchor="start" x="1352.63" y="-209.7" font-family="monospace" font-size="9.00" style="">       stream-format: byte-stream</text>
</g>
<!-- demux_0x11d98c3e0_sink_0x11d988ca0 -->
<g id="node16" class="node" pointer-events="visible" data-name="demux_0x11d98c3e0_sink_0x11d988ca0">

<polygon fill="#aaaaff" stroke="black" points="938.67,-189.6 884.67,-189.6 884.67,-168.4 938.67,-168.4 938.67,-189.6" style=""/>
<text text-anchor="middle" x="911.67" y="-181.7" font-family="sans" font-size="9.00" style="">sink</text>
<text text-anchor="middle" x="911.67" y="-170.9" font-family="sans" font-size="9.00" style="">[&gt;][bfb]</text>
</g>
<!-- demux_0x11d98c3e0_video_0_0041_0x10380d070 -->
<g id="node17" class="node" pointer-events="visible" data-name="demux_0x11d98c3e0_video_0_0041_0x10380d070">

<polygon fill="#ffaaaa" stroke="black" stroke-dasharray="1,5" points="1025.67,-189.6 971.67,-189.6 971.67,-168.4 1025.67,-168.4 1025.67,-189.6" style=""/>
<text text-anchor="middle" x="998.67" y="-181.7" font-family="sans" font-size="9.00" style="">video_0_0041</text>
<text text-anchor="middle" x="998.67" y="-170.9" font-family="sans" font-size="9.00" style="">[&gt;][bfb]</text>
</g>
<!-- demux_0x11d98c3e0_sink_0x11d988ca0&#45;&gt;demux_0x11d98c3e0_video_0_0041_0x10380d070 -->
<!-- demux_0x11d98c3e0_video_0_0041_0x10380d070&#45;&gt;video_queue_0x11d98c6e0_sink_0x11d988ef0 -->
<g id="edge14" class="edge" data-name="demux_0x11d98c3e0_video_0_0041_0x10380d070-&gt;video_queue_0x11d98c6e0_sink_0x11d988ef0">

<path fill="none" stroke="black" d="M1025.91,-182.43C1063.44,-187.35 1132.68,-196.41 1175.77,-202.05" style=""/>
<polygon fill="black" stroke="black" points="1175.31,-205.51 1185.68,-203.34 1176.22,-198.57 1175.31,-205.51" style=""/>
<text text-anchor="start" x="1049.67" y="-213.5" font-family="monospace" font-size="9.00" style="">video/x-h264</text>
<text text-anchor="start" x="1049.67" y="-202.7" font-family="monospace" font-size="9.00" style="">       stream-format: byte-stream</text>
</g>
<!-- demux_0x11d98c3e0_audio_0_0042_0x10380d2c0 -->
<g id="node18" class="node" pointer-events="visible" data-name="demux_0x11d98c3e0_audio_0_0042_0x10380d2c0">

<polygon fill="#ffaaaa" stroke="black" stroke-dasharray="1,5" points="1025.67,-160.6 971.67,-160.6 971.67,-139.4 1025.67,-139.4 1025.67,-160.6" style=""/>
<text text-anchor="middle" x="998.67" y="-152.7" font-family="sans" font-size="9.00" style="">audio_0_0042</text>
<text text-anchor="middle" x="998.67" y="-141.9" font-family="sans" font-size="9.00" style="">[&gt;][bfb]</text>
</g>
<!-- demux_0x11d98c3e0_audio_0_0042_0x10380d2c0&#45;&gt;audio_queue_0x11d98c9e0_sink_0x11d989830 -->
<g id="edge15" class="edge" data-name="demux_0x11d98c3e0_audio_0_0042_0x10380d2c0-&gt;audio_queue_0x11d98c9e0_sink_0x11d989830">

<path fill="none" stroke="black" d="M1025.91,-144.85C1063.52,-137.47 1132.98,-123.83 1176.04,-115.38" style=""/>
<polygon fill="black" stroke="black" points="1176.55,-118.84 1185.69,-113.48 1175.21,-111.98 1176.55,-118.84" style=""/>
<text text-anchor="start" x="1063.66" y="-163.3" font-family="monospace" font-size="9.00" style="">audio/mpeg</text>
<text text-anchor="start" x="1063.66" y="-152.5" font-family="monospace" font-size="9.00" style="">         mpegversion: 4</text>
<text text-anchor="start" x="1063.66" y="-141.7" font-family="monospace" font-size="9.00" style="">       stream-format: adts</text>
</g>
<!-- typefind_0x11d982010_sink_0x11d988800 -->
<g id="node19" class="node" pointer-events="visible" data-name="typefind_0x11d982010_sink_0x11d988800">

<polygon fill="#aaaaff" stroke="black" points="629.94,-189.6 575.94,-189.6 575.94,-168.4 629.94,-168.4 629.94,-189.6" style=""/>
<text text-anchor="middle" x="602.94" y="-181.7" font-family="sans" font-size="9.00" style="">sink</text>
<text text-anchor="middle" x="602.94" y="-170.9" font-family="sans" font-size="9.00" style="">[&gt;][bfb]</text>
</g>
<!-- typefind_0x11d982010_src_0x11d988a50 -->
<g id="node20" class="node" pointer-events="visible" data-name="typefind_0x11d982010_src_0x11d988a50">

<polygon fill="#ffaaaa" stroke="black" points="716.94,-189.6 662.94,-189.6 662.94,-168.4 716.94,-168.4 716.94,-189.6" style=""/>
<text text-anchor="middle" x="689.94" y="-181.7" font-family="sans" font-size="9.00" style="">src</text>
<text text-anchor="middle" x="689.94" y="-170.9" font-family="sans" font-size="9.00" style="">[&gt;][bfb]</text>
</g>
<!-- typefind_0x11d982010_sink_0x11d988800&#45;&gt;typefind_0x11d982010_src_0x11d988a50 -->
<!-- typefind_0x11d982010_src_0x11d988a50&#45;&gt;demux_0x11d98c3e0_sink_0x11d988ca0 -->
<g id="edge17" class="edge" data-name="typefind_0x11d982010_src_0x11d988a50-&gt;demux_0x11d98c3e0_sink_0x11d988ca0">

<path fill="none" stroke="black" d="M717.01,-179C755.64,-179 828.31,-179 872.81,-179" style=""/>
<polygon fill="black" stroke="black" points="872.78,-182.5 882.78,-179 872.78,-175.5 872.78,-182.5" style=""/>
<text text-anchor="start" x="774.94" y="-203.3" font-family="monospace" font-size="9.00" style="">video/mpegts</text>
<text text-anchor="start" x="774.94" y="-192.5" font-family="monospace" font-size="9.00" style="">        systemstream: true</text>
<text text-anchor="start" x="774.94" y="-181.7" font-family="monospace" font-size="9.00" style="">          packetsize: 188</text>
</g>
<!-- demux_queue_0x11d98c0e0_sink_0x11d988360 -->
<g id="node21" class="node" pointer-events="visible" data-name="demux_queue_0x11d98c0e0_sink_0x11d988360">

<polygon fill="#aaaaff" stroke="black" points="388.44,-189.6 334.44,-189.6 334.44,-168.4 388.44,-168.4 388.44,-189.6" style=""/>
<text text-anchor="middle" x="361.44" y="-181.7" font-family="sans" font-size="9.00" style="">sink</text>
<text text-anchor="middle" x="361.44" y="-170.9" font-family="sans" font-size="9.00" style="">[&gt;][bfb]</text>
</g>
<!-- demux_queue_0x11d98c0e0_src_0x11d9885b0 -->
<g id="node22" class="node" pointer-events="visible" data-name="demux_queue_0x11d98c0e0_src_0x11d9885b0">

<polygon fill="#ffaaaa" stroke="black" points="475.44,-189.6 421.44,-189.6 421.44,-168.4 475.44,-168.4 475.44,-189.6" style=""/>
<text text-anchor="middle" x="448.44" y="-181.7" font-family="sans" font-size="9.00" style="">src</text>
<text text-anchor="middle" x="448.44" y="-170.9" font-family="sans" font-size="9.00" style="">[&gt;][bfb][T]</text>
</g>
<!-- demux_queue_0x11d98c0e0_sink_0x11d988360&#45;&gt;demux_queue_0x11d98c0e0_src_0x11d9885b0 -->
<!-- demux_queue_0x11d98c0e0_src_0x11d9885b0&#45;&gt;typefind_0x11d982010_sink_0x11d988800 -->
<g id="edge19" class="edge" data-name="demux_queue_0x11d98c0e0_src_0x11d9885b0-&gt;typefind_0x11d982010_sink_0x11d988800">

<path fill="none" stroke="black" d="M475.65,-179C500.09,-179 536.81,-179 564.37,-179" style=""/>
<polygon fill="black" stroke="black" points="564.04,-182.5 574.04,-179 564.04,-175.5 564.04,-182.5" style=""/>
<text text-anchor="middle" x="509.19" y="-181.7" font-family="monospace" font-size="9.00" style="">ANY</text>
</g>
<!-- srtsrc0_0x11d9842b0_src_0x11d988110 -->
<g id="node23" class="node" pointer-events="visible" data-name="srtsrc0_0x11d9842b0_src_0x11d988110">

<polygon fill="#ffaaaa" stroke="black" points="168.47,-189.6 114.47,-189.6 114.47,-168.4 168.47,-168.4 168.47,-189.6" style=""/>
<text text-anchor="middle" x="141.47" y="-181.7" font-family="sans" font-size="9.00" style="">src</text>
<text text-anchor="middle" x="141.47" y="-170.9" font-family="sans" font-size="9.00" style="">[&gt;][bfb][T]</text>
</g>
<!-- srtsrc0_0x11d9842b0_src_0x11d988110&#45;&gt;demux_queue_0x11d98c0e0_sink_0x11d988360 -->
<g id="edge20" class="edge" data-name="srtsrc0_0x11d9842b0_src_0x11d988110-&gt;demux_queue_0x11d98c0e0_sink_0x11d988360">

<path fill="none" stroke="black" d="M168.76,-179C207.14,-179 278.7,-179 322.69,-179" style=""/>
<polygon fill="black" stroke="black" points="322.54,-182.5 332.54,-179 322.54,-175.5 322.54,-182.5" style=""/>
<text text-anchor="middle" x="300.69" y="-181.7" font-family="monospace" font-size="9.00" style="">ANY</text>
</g>
</g>
</svg>